<svg xmlns="http://www.w3.org/2000/svg" width="121.976" height="95.447" viewBox="0 0 121.976 95.447">
  <path id="Icon_awesome-image" data-name="Icon awesome-image" d="M72.615,64.6H7.512A7.512,7.512,0,0,1,0,57.083V12.012A7.512,7.512,0,0,1,7.512,4.5h65.1a7.512,7.512,0,0,1,7.512,7.512V57.083A7.512,7.512,0,0,1,72.615,64.6ZM17.528,13.264a8.764,8.764,0,1,0,8.764,8.764A8.764,8.764,0,0,0,17.528,13.264ZM10.016,54.579h60.1V37.051l-13.7-13.7a1.878,1.878,0,0,0-2.656,0L32.551,44.563l-8.688-8.688a1.878,1.878,0,0,0-2.656,0L10.016,47.067Z" transform="translate(41.849 30.852)" fill="#cdd4d9"/>
  <g id="icon-add">
    <rect id="Rectangle_112" data-name="Rectangle 112" width="64" height="64" fill="#fff" opacity="0"/>
    <path id="Icon_ionic-ios-add" data-name="Icon ionic-ios-add" d="M38.882,22.93H26.9V10.951a1.986,1.986,0,1,0-3.972,0V22.93H10.951a1.986,1.986,0,0,0,0,3.972H22.93V38.882a1.986,1.986,0,1,0,3.972,0V26.9H38.882a1.986,1.986,0,1,0,0-3.972Z" transform="translate(7.009 7.009)" fill="#fc5c03"/>
  </g>
</svg>
