<svg xmlns="http://www.w3.org/2000/svg" width="30.857" height="23.143" viewBox="0 0 30.857 23.143">
  <path id="Icon_awesome-image" data-name="Icon awesome-image" d="M27.965,27.643H2.893A2.893,2.893,0,0,1,0,24.75V7.393A2.893,2.893,0,0,1,2.893,4.5H27.965a2.893,2.893,0,0,1,2.893,2.893V24.75A2.893,2.893,0,0,1,27.965,27.643ZM6.75,7.875a3.375,3.375,0,1,0,3.375,3.375A3.375,3.375,0,0,0,6.75,7.875ZM3.857,23.786H27v-6.75l-5.274-5.274a.723.723,0,0,0-1.023,0l-8.167,8.167L9.19,16.583a.723.723,0,0,0-1.023,0l-4.31,4.31Z" transform="translate(0 -4.5)" fill="#fff"/>
</svg>
