<svg xmlns="http://www.w3.org/2000/svg" width="56.316" height="56.316" viewBox="0 0 56.316 56.316">
  <g id="Group_4360" data-name="Group 4360" transform="translate(18282 -16674.5)">
    <path id="Icon_awesome-thumbs-up" data-name="Icon awesome-thumbs-up" d="M11.439,24.638H2.64A2.64,2.64,0,0,0,0,27.278v26.4a2.64,2.64,0,0,0,2.64,2.64h8.8a2.64,2.64,0,0,0,2.64-2.64v-26.4A2.64,2.64,0,0,0,11.439,24.638ZM7.04,51.917a2.64,2.64,0,1,1,2.64-2.64A2.64,2.64,0,0,1,7.04,51.917Zm35.2-42.958c0,4.665-2.857,7.282-3.66,10.4H49.766a6.572,6.572,0,0,1,6.55,6.39,7.964,7.964,0,0,1-2.138,5.411l-.012.012a9.188,9.188,0,0,1-1.024,8.741,8.7,8.7,0,0,1-1.8,8.223,5.839,5.839,0,0,1-.676,4.909c-2.245,3.225-7.809,3.271-12.514,3.271h-.313c-5.311,0-9.658-1.936-13.151-3.49a17.311,17.311,0,0,0-5.791-1.779,1.32,1.32,0,0,1-1.3-1.32V26.214a1.318,1.318,0,0,1,.391-.937c4.357-4.306,6.231-8.864,9.8-12.441,1.628-1.631,2.221-4.1,2.793-6.479C31.075,4.322,32.1,0,34.318,0,36.958,0,42.237.88,42.237,8.959Z" transform="translate(-18282 16674.5)" fill="#fc5c03"/>
  </g>
</svg>
