<svg xmlns="http://www.w3.org/2000/svg" width="51.241" height="43.474" viewBox="0 0 51.241 43.474">
  <path id="Icon_awesome-image" data-name="Icon awesome-image" d="M32.625,31.5H3.375A3.375,3.375,0,0,1,0,28.125V7.875A3.375,3.375,0,0,1,3.375,4.5h29.25A3.375,3.375,0,0,1,36,7.875v20.25A3.375,3.375,0,0,1,32.625,31.5ZM7.875,8.438a3.938,3.938,0,1,0,3.938,3.938A3.937,3.937,0,0,0,7.875,8.438ZM4.5,27h27V19.125l-6.153-6.153a.844.844,0,0,0-1.193,0L14.625,22.5l-3.9-3.9a.844.844,0,0,0-1.193,0L4.5,23.625Z" transform="translate(15.241 11.974)" fill="#fc5c03"/>
  <path id="Icon_ionic-ios-add" data-name="Icon ionic-ios-add" d="M32.861,20.12H23.293V10.551a1.586,1.586,0,0,0-3.173,0V20.12H10.551a1.586,1.586,0,0,0,0,3.173H20.12v9.568a1.586,1.586,0,1,0,3.173,0V23.293h9.568a1.586,1.586,0,1,0,0-3.173Z" transform="translate(-8.965 -8.965)" fill="#fc5c03"/>
</svg>
